# Blender v2.72 (sub 0) OBJ File: 'animtst.blend'
# www.blender.org
mtllib cuboid_000006.mtl
o Cube
v 0.250000 0.095109 0.693887
v 0.250000 0.303794 1.148256
v 0.750000 2.106712 0.306550
v 0.750000 1.920428 -0.151901
v 0.250000 0.549477 0.485203
v 0.250000 0.758162 0.939571
v 0.250000 2.003951 0.256953
v 0.250000 1.983490 -0.240146
v 0.750000 0.095109 0.693888
v 0.750000 0.303794 1.148256
v 0.750000 0.549478 0.485203
v 0.750000 0.758162 0.939571
v 0.750000 2.532963 0.178598
v 0.750000 2.430313 -0.298625
v 0.250000 2.498476 0.249478
v 0.250000 2.498496 -0.249354
v -0.250000 1.999880 0.250006
v -0.250000 1.999886 -0.250011
v -0.250000 2.499479 0.250556
v -0.250000 2.501982 -0.247479
v -0.750000 2.000000 0.250000
v -0.750000 2.000000 -0.250000
v -0.750000 2.499984 0.250017
v -0.750000 2.500192 -0.249757
v -0.250000 0.000000 0.250000
v -0.250000 0.000000 -0.250000
v -0.750000 0.000000 0.250000
v -0.750000 0.000000 -0.250000
v 0.244842 3.507588 0.263957
v 0.245552 3.529260 -0.229945
v -0.241014 3.528511 0.256189
v -0.243708 3.508656 -0.235262
v 0.279060 3.984618 0.280553
v 0.278599 4.013779 -0.211441
v -0.276416 4.008960 0.246701
v -0.276732 3.986303 -0.242081
v 0.250000 4.497101 0.273597
v 0.250000 4.502256 -0.226376
v -0.250000 4.497101 0.273597
v -0.250000 4.502256 -0.226377
v 0.409174 3.315527 0.008545
v 0.411232 3.616869 -0.388594
v 0.840868 3.506485 0.151313
v 0.846031 3.802745 -0.245818
v 1.095442 2.260747 -0.812880
v 1.099403 2.568915 -1.206602
v 1.538544 2.440978 -0.667355
v 1.542504 2.749146 -1.061076
v -0.376635 3.615750 0.453484
v -0.394685 3.292882 0.076339
v -0.802435 3.818264 0.308178
v -0.821893 3.495979 -0.070107
v -1.103310 2.654886 1.341659
v -1.123165 2.325464 0.966044
v -1.538705 2.850656 1.192979
v -1.558560 2.521233 0.817365
vn -1.000000 -0.000000 -0.000000
vn 1.000000 0.000000 0.000000
vn -0.000000 0.424900 0.905200
vn -0.096800 0.973000 -0.209300
vn 0.000000 -0.451400 -0.892300
vn -0.000000 0.417400 0.908700
vn 0.000000 -0.417400 -0.908700
vn -0.000000 -0.908700 0.417400
vn 0.171600 -0.017600 -0.985000
vn 0.002200 -0.001100 1.000000
vn -0.152300 0.284200 0.946600
vn -0.001100 -0.001100 1.000000
vn 0.019900 0.005000 -0.999800
vn 0.010400 0.012100 -0.999900
vn 0.008100 -1.000000 -0.000000
vn -0.000000 0.005000 -1.000000
vn -0.003600 1.000000 0.005000
vn -0.000000 -0.000000 -1.000000
vn 0.000000 -1.000000 0.000000
vn -0.000000 0.000000 1.000000
vn 0.055600 -0.010400 -0.998400
vn -0.016600 -0.014400 0.999800
vn -1.000000 0.008700 0.000000
vn 1.000000 0.004300 0.000000
vn 0.000000 0.030400 -0.999500
vn -0.062100 -0.030200 0.997600
vn 0.106200 0.027500 0.994000
vn 0.810500 -0.078300 0.580400
vn -0.000000 0.999900 0.010300
vn -0.000000 0.013600 0.999900
vn -0.998500 0.054100 -0.001900
vn 0.998300 0.058500 0.002500
vn 0.008500 -0.611000 0.791600
vn -0.045100 0.041200 -0.998100
vn 0.653400 0.755800 0.044200
vn 0.437800 -0.898200 -0.038800
vn 0.463200 -0.700100 -0.543300
vn 0.008500 0.615500 -0.788100
vn 0.887400 0.358600 0.289600
vn -0.888100 -0.364000 -0.280800
vn 0.039000 0.658000 0.752000
vn -0.878700 -0.067500 -0.472500
vn -0.674200 0.737800 -0.033800
vn -0.501300 -0.864500 0.037700
vn -0.490000 -0.642400 0.589300
vn -0.052500 -0.654300 -0.754400
vn -0.872100 0.389800 -0.295800
vn 0.873100 -0.390200 0.292200
vn -0.182600 0.472500 0.862200
vn 0.135100 0.990800 0.000000
vn 0.106300 -0.419000 -0.901700
vn -0.131300 -0.274100 -0.952700
vn -0.014000 0.015100 0.999800
vn 0.139300 0.015000 0.990100
vn -0.003900 -0.017900 -0.999800
vn -0.003600 0.018800 -0.999800
vn -0.033600 -0.998600 0.041100
vn 0.004600 0.000500 -1.000000
vn 0.001000 1.000000 0.000400
vn 0.009300 0.037500 -0.999300
vn 0.002100 -0.005500 1.000000
vn -1.000000 0.006200 0.005200
vn 1.000000 0.005100 0.001700
vn 0.056400 -0.027200 -0.998000
vn -0.015200 0.018600 0.999700
vn 0.451000 0.888700 -0.083000
vn -0.126400 -0.394600 0.910100
vn -0.063000 -0.051500 0.996700
vn -0.998700 0.051700 0.000500
vn 0.998400 0.056600 0.000600
vn -0.009900 -0.613300 0.789800
vn -0.411900 0.908400 0.071500
vn 0.316600 0.758300 0.569800
vn -0.882300 -0.372700 -0.287400
vn -0.003300 0.614000 -0.789300
vn 0.886200 0.365800 0.284400
vn -0.889600 -0.355300 -0.287000
vn 0.054500 0.655200 0.753500
vn 0.103300 -0.429500 -0.897100
vn -0.333500 0.726000 -0.601400
vn 0.921000 -0.316600 0.227000
vn -0.038200 -0.656800 -0.753100
vn -0.870800 0.395500 -0.292100
vn 0.873700 -0.387700 0.293800
usemtl Material
s off
f 6//1 7//1 8//1
f 4//2 14//2 13//2
f 6//3 12//3 3//3
f 15//4 13//4 14//4
f 12//2 11//2 4//2
f 11//5 5//5 8//5
f 9//2 11//2 12//2
f 6//6 2//6 10//6
f 5//7 11//7 9//7
f 1//8 9//8 10//8
f 4//9 8//9 16//9
f 15//10 19//10 17//10
f 7//11 3//11 13//11
f 17//12 19//12 23//12
f 8//13 18//13 20//13
f 20//14 32//14 30//14
f 7//15 17//15 18//15
f 22//1 21//1 23//1
f 20//16 18//16 22//16
f 19//17 20//17 24//17
f 22//18 18//18 26//18
f 25//19 27//19 28//19
f 21//20 27//20 25//20
f 22//1 28//1 27//1
f 18//2 17//2 25//2
f 32//21 36//21 34//21
f 15//22 29//22 31//22
f 20//23 19//23 31//23
f 15//24 16//24 30//24
f 36//25 40//25 38//25
f 29//26 33//26 35//26
f 31//27 35//27 51//27
f 33//28 29//28 41//28
f 38//29 40//29 39//29
f 33//30 37//30 39//30
f 36//31 35//31 39//31
f 33//32 34//32 38//32
f 43//33 41//33 45//33
f 30//34 34//34 44//34
f 34//35 33//35 43//35
f 29//36 30//36 42//36
f 46//37 48//37 47//37
f 44//38 48//38 46//38
f 43//39 47//39 48//39
f 41//40 42//40 46//40
f 51//41 55//41 53//41
f 36//42 32//42 50//42
f 35//43 36//43 52//43
f 32//44 31//44 49//44
f 53//45 55//45 56//45
f 52//46 50//46 54//46
f 52//47 56//47 55//47
f 50//48 49//48 53//48
f 5//1 6//1 8//1
f 3//2 4//2 13//2
f 7//49 6//49 3//49
f 16//50 15//50 14//50
f 3//2 12//2 4//2
f 4//51 11//51 8//51
f 10//2 9//2 12//2
f 12//6 6//6 10//6
f 1//7 5//7 9//7
f 2//8 1//8 10//8
f 14//52 4//52 16//52
f 7//53 15//53 17//53
f 15//54 7//54 13//54
f 21//20 17//20 23//20
f 16//55 8//55 20//55
f 16//56 20//56 30//56
f 8//57 7//57 18//57
f 24//1 22//1 23//1
f 24//58 20//58 22//58
f 23//59 19//59 24//59
f 28//18 22//18 26//18
f 26//19 25//19 28//19
f 17//20 21//20 25//20
f 21//1 22//1 27//1
f 26//2 18//2 25//2
f 30//60 32//60 34//60
f 19//61 15//61 31//61
f 32//62 20//62 31//62
f 29//63 15//63 30//63
f 34//64 36//64 38//64
f 31//65 29//65 35//65
f 49//66 31//66 51//66
f 43//67 33//67 41//67
f 37//29 38//29 39//29
f 35//68 33//68 39//68
f 40//69 36//69 39//69
f 37//70 33//70 38//70
f 47//71 43//71 45//71
f 42//72 30//72 44//72
f 44//73 34//73 43//73
f 41//74 29//74 42//74
f 45//37 46//37 47//37
f 42//75 44//75 46//75
f 44//76 43//76 48//76
f 45//77 41//77 46//77
f 49//78 51//78 53//78
f 52//79 36//79 50//79
f 51//80 35//80 52//80
f 50//81 32//81 49//81
f 54//45 53//45 56//45
f 56//82 52//82 54//82
f 51//83 52//83 55//83
f 54//84 50//84 53//84
