# Blender v2.72 (sub 0) OBJ File: 'animtst.blend'
# www.blender.org
mtllib cuboid_000021.mtl
o Cube
v 0.155190 0.025768 1.209611
v 0.090436 0.027436 1.705398
v 0.696957 1.998053 1.778260
v 0.762297 1.996446 1.282533
v 0.182843 0.524999 1.211543
v 0.118089 0.526667 1.707330
v 0.211249 2.017490 1.701429
v 0.277980 2.015111 1.210148
v 0.650207 -0.001902 1.274357
v 0.585454 -0.000234 1.770144
v 0.677860 0.497329 1.276290
v 0.613106 0.498997 1.772076
v 0.718114 2.510433 1.765764
v 0.779408 2.515031 1.269911
v 0.246460 2.587202 1.629071
v 0.253350 2.634670 1.134700
v -0.250415 2.105669 1.584230
v -0.249537 2.122600 1.087195
v -0.250000 2.606824 1.600886
v -0.250000 2.644411 1.122773
v -0.750000 2.042834 1.511904
v -0.750000 2.199686 1.039290
v -0.750000 2.557221 1.635357
v -0.750000 2.648346 1.152967
v -0.250000 0.161878 0.794598
v -0.250000 0.338453 0.326815
v -0.750000 0.161878 0.794598
v -0.750000 0.338453 0.326815
v 0.242997 3.601013 1.732382
v 0.246519 3.667507 1.240274
v -0.240013 3.618946 1.727058
v -0.244737 3.648963 1.235856
v 0.275384 4.076827 1.797277
v 0.278593 4.149343 1.306646
v -0.275731 4.098447 1.768426
v -0.278654 4.125631 1.279151
v 0.250000 4.581611 1.841822
v 0.250000 4.636432 1.344836
v -0.250000 4.581611 1.841822
v -0.250000 4.636432 1.344836
v 0.405257 3.432363 1.521939
v 0.452135 3.705865 1.107008
v 0.820648 3.632323 1.699072
v 0.870490 3.900929 1.284262
v 1.166291 2.320732 0.860525
v 1.215976 2.599390 0.448359
v 1.592558 2.510498 1.040207
v 1.642243 2.789155 0.628040
v -0.347068 3.671631 1.922025
v -0.396036 3.401594 1.507769
v -0.778874 3.894571 1.835279
v -0.829241 3.625232 1.420031
v -1.024759 2.605936 2.725439
v -1.076223 2.329539 2.311971
v -1.466288 2.822655 2.635522
v -1.517751 2.546258 2.222053
vn -0.989000 0.061300 -0.134600
vn 0.991000 -0.029500 0.130700
vn -0.129500 0.003200 0.991600
vn 0.132600 0.986500 0.096600
vn 0.989800 -0.056300 0.130600
vn 0.147400 -0.010300 -0.989000
vn 0.990000 -0.055300 0.129500
vn -0.129500 0.003300 0.991600
vn 0.129500 -0.003300 -0.991600
vn -0.055300 -0.998500 -0.003900
vn 0.142500 -0.114100 -0.983200
vn -0.051100 0.128900 0.990300
vn -0.273000 0.034700 0.961400
vn 0.089800 -0.232400 0.968500
vn 0.239300 0.066300 -0.968700
vn 0.004700 0.111800 -0.993700
vn -0.179200 -0.983200 -0.033800
vn -1.000000 0.000000 -0.000000
vn 0.129500 0.243500 -0.961200
vn 0.018900 0.982400 0.185600
vn 0.146800 0.387800 -0.910000
vn 0.000000 -0.935600 -0.353100
vn -0.090100 -0.354900 0.930600
vn 1.000000 0.000200 0.000100
vn 0.045100 0.093500 -0.994600
vn -0.014700 -0.101400 0.994700
vn -1.000000 0.009800 0.000800
vn 0.999900 0.005100 0.014400
vn 0.000000 0.127500 -0.991800
vn -0.057000 -0.131100 0.989700
vn 0.160400 -0.073000 0.984400
vn 0.726100 -0.141200 0.673000
vn -0.000000 0.994000 0.109600
vn -0.000000 -0.087900 0.996100
vn -0.998600 0.051800 0.008800
vn 0.998200 0.057400 0.015000
vn -0.087300 -0.552800 0.828700
vn 0.019300 0.135200 -0.990600
vn 0.640100 0.759400 0.116400
vn 0.098100 -0.986300 -0.132600
vn 0.513100 -0.738500 -0.437400
vn 0.100000 0.556300 -0.824900
vn 0.854000 0.377400 0.358100
vn -0.855400 -0.382800 -0.349000
vn 0.102500 0.552100 0.827500
vn -0.867300 -0.016500 -0.497600
vn -0.665500 0.745000 0.045400
vn -0.509500 -0.859100 -0.047600
vn -0.457800 -0.711700 0.532800
vn -0.115300 -0.548200 -0.828300
vn -0.884200 0.431600 -0.178500
vn 0.885300 -0.430400 0.175900
vn -0.989600 0.063100 -0.129500
vn 0.991800 -0.038000 0.122200
vn -0.155700 0.013600 0.987700
vn 0.213000 0.976400 0.035400
vn 0.990000 -0.055900 0.129500
vn 0.129500 -0.003200 -0.991600
vn 0.242100 -0.031600 -0.969700
vn -0.251700 -0.031900 0.967300
vn -0.149600 0.133700 0.979700
vn -0.139200 -0.032800 0.989700
vn 0.021200 -0.120000 -0.992500
vn 0.025500 0.101800 -0.994500
vn -0.194800 -0.980600 -0.021700
vn -0.059600 0.067900 -0.995900
vn -0.093100 0.992600 0.078000
vn 0.000000 0.357500 -0.933900
vn -0.000000 -0.935600 -0.353200
vn 0.000000 -0.376400 0.926500
vn 1.000000 -0.001000 0.001700
vn 0.003800 0.136200 -0.990700
vn -0.061100 -0.122900 0.990500
vn -0.999900 0.004100 0.009900
vn 1.000000 0.002600 0.007500
vn 0.045700 0.080700 -0.995700
vn -0.014200 -0.087000 0.996100
vn 0.457000 0.889400 0.010600
vn -0.179300 -0.416900 0.891100
vn -0.057500 -0.146900 0.987500
vn -0.998500 0.055200 0.006100
vn 0.998700 0.049700 0.005500
vn -0.101200 -0.554700 0.825900
vn -0.325400 0.914900 -0.238800
vn 0.343200 0.769100 0.539200
vn -0.854000 -0.384800 -0.350100
vn 0.091400 0.555200 -0.826700
vn 0.853400 0.384800 0.351700
vn -0.856200 -0.374200 -0.356200
vn 0.117300 0.549200 0.827400
vn 0.034700 -0.306000 -0.951400
vn -0.384500 0.795100 -0.469100
vn 0.907800 -0.392200 0.148300
vn -0.101700 -0.550900 -0.828400
vn -0.883000 0.435400 -0.175300
vn 0.885700 -0.429300 0.176800
usemtl Material
s off
f 6//1 7//1 8//1
f 3//2 4//2 14//2
f 6//3 12//3 3//3
f 16//4 15//4 13//4
f 11//5 4//5 3//5
f 5//6 8//6 4//6
f 9//7 11//7 12//7
f 6//8 2//8 10//8
f 5//9 11//9 9//9
f 1//10 9//10 10//10
f 4//11 8//11 16//11
f 7//12 15//12 19//12
f 3//13 13//13 15//13
f 19//14 23//14 21//14
f 8//15 18//15 20//15
f 20//16 32//16 30//16
f 7//17 17//17 18//17
f 21//18 23//18 24//18
f 18//19 22//19 24//19
f 20//20 24//20 23//20
f 22//21 18//21 26//21
f 26//22 25//22 27//22
f 17//23 21//23 27//23
f 21//18 22//18 28//18
f 17//24 25//24 26//24
f 32//25 36//25 34//25
f 15//26 29//26 31//26
f 20//27 19//27 31//27
f 15//28 16//28 30//28
f 36//29 40//29 38//29
f 29//30 33//30 35//30
f 31//31 35//31 51//31
f 33//32 29//32 41//32
f 38//33 40//33 39//33
f 33//34 37//34 39//34
f 36//35 35//35 39//35
f 33//36 34//36 38//36
f 43//37 41//37 45//37
f 30//38 34//38 44//38
f 34//39 33//39 43//39
f 29//40 30//40 42//40
f 46//41 48//41 47//41
f 44//42 48//42 46//42
f 43//43 47//43 48//43
f 41//44 42//44 46//44
f 51//45 55//45 53//45
f 36//46 32//46 50//46
f 35//47 36//47 52//47
f 32//48 31//48 49//48
f 53//49 55//49 56//49
f 52//50 50//50 54//50
f 52//51 56//51 55//51
f 50//52 49//52 53//52
f 5//53 6//53 8//53
f 13//54 3//54 14//54
f 7//55 6//55 3//55
f 14//56 16//56 13//56
f 12//57 11//57 3//57
f 11//58 5//58 4//58
f 10//7 9//7 12//7
f 12//8 6//8 10//8
f 1//9 5//9 9//9
f 2//10 1//10 10//10
f 14//59 4//59 16//59
f 17//60 7//60 19//60
f 7//61 3//61 15//61
f 17//62 19//62 21//62
f 16//63 8//63 20//63
f 16//64 20//64 30//64
f 8//65 7//65 18//65
f 22//18 21//18 24//18
f 20//66 18//66 24//66
f 19//67 20//67 23//67
f 28//68 22//68 26//68
f 28//69 26//69 27//69
f 25//70 17//70 27//70
f 27//18 21//18 28//18
f 18//71 17//71 26//71
f 30//72 32//72 34//72
f 19//73 15//73 31//73
f 32//74 20//74 31//74
f 29//75 15//75 30//75
f 34//76 36//76 38//76
f 31//77 29//77 35//77
f 49//78 31//78 51//78
f 43//79 33//79 41//79
f 37//33 38//33 39//33
f 35//80 33//80 39//80
f 40//81 36//81 39//81
f 37//82 33//82 38//82
f 47//83 43//83 45//83
f 42//84 30//84 44//84
f 44//85 34//85 43//85
f 41//86 29//86 42//86
f 45//41 46//41 47//41
f 42//87 44//87 46//87
f 44//88 43//88 48//88
f 45//89 41//89 46//89
f 49//90 51//90 53//90
f 52//91 36//91 50//91
f 51//92 35//92 52//92
f 50//93 32//93 49//93
f 54//49 53//49 56//49
f 56//94 52//94 54//94
f 51//95 52//95 55//95
f 54//96 50//96 53//96
