# Blender v2.72 (sub 0) OBJ File: 'animtst.blend'
# www.blender.org
mtllib cuboid_000009.mtl
o Cube
v 0.250000 -0.000220 0.740637
v 0.250000 0.208465 1.195005
v 0.750000 2.011383 0.353299
v 0.750000 1.825099 -0.105152
v 0.250000 0.454148 0.531952
v 0.250000 0.662833 0.986321
v 0.250000 1.914591 0.299764
v 0.250000 1.892391 -0.195622
v 0.750000 -0.000220 0.740637
v 0.750000 0.208465 1.195006
v 0.750000 0.454149 0.531952
v 0.750000 0.662833 0.986321
v 0.750000 2.443991 0.223423
v 0.750000 2.346019 -0.253578
v 0.250000 2.466484 0.275837
v 0.250000 2.507164 -0.218643
v -0.250000 1.998771 0.250550
v -0.250000 1.998837 -0.249558
v -0.250000 2.494392 0.255435
v -0.250000 2.519062 -0.223222
v -0.750000 2.000000 0.250000
v -0.750000 2.000000 -0.250000
v -0.750000 2.499827 0.250167
v -0.750000 2.501843 -0.247412
v -0.250000 0.000000 0.250000
v -0.250000 0.000000 -0.250000
v -0.750000 0.000000 0.250000
v -0.750000 0.000000 -0.250000
v 0.243167 3.476757 0.384784
v 0.246406 3.542748 -0.106594
v -0.240049 3.496445 0.378593
v -0.244698 3.522697 -0.111443
v 0.275734 3.951718 0.448260
v 0.278573 4.024210 -0.041328
v -0.275764 3.975688 0.416486
v -0.278589 3.998619 -0.071194
v 0.250000 4.458786 0.490178
v 0.250000 4.511550 -0.007030
v -0.250000 4.458786 0.490177
v -0.250000 4.511550 -0.007031
v 0.405917 3.307197 0.150436
v 0.448267 3.603469 -0.248766
v 0.822953 3.497506 0.333570
v 0.868283 3.788795 -0.065561
v 1.161013 2.236180 -0.582133
v 1.206077 2.538107 -0.978125
v 1.588980 2.415975 -0.396344
v 1.634044 2.717902 -0.792335
v -0.348065 3.578339 0.585250
v -0.395888 3.280033 0.191338
v -0.779743 3.794178 0.482462
v -0.828964 3.496561 0.087442
v -1.027315 2.572724 1.461445
v -1.077608 2.267453 1.068660
v -1.468713 2.782184 1.355171
v -1.519005 2.476913 0.962386
vn -1.000000 -0.000000 -0.000000
vn 1.000000 0.000000 0.000000
vn -0.000000 0.424900 0.905200
vn 0.023000 0.979300 -0.201100
vn 0.000000 -0.451400 -0.892300
vn -0.000000 0.417400 0.908700
vn 0.000000 -0.417400 -0.908700
vn -0.000000 -0.908700 0.417400
vn 0.173100 -0.036900 -0.984200
vn -0.038300 0.043300 0.998300
vn -0.156300 0.284000 0.946000
vn -0.010600 -0.009900 0.999900
vn 0.117700 0.050200 -0.991800
vn 0.005300 0.110700 -0.993800
vn -0.166000 -0.986100 -0.000100
vn 0.001000 0.050600 -0.998700
vn -0.036900 0.998000 0.051400
vn 0.000900 0.000200 -1.000000
vn 0.000000 -1.000000 0.000000
vn -0.000000 0.000000 1.000000
vn 0.049300 0.087700 -0.994900
vn -0.017100 -0.107300 0.994100
vn -1.000000 0.009900 0.000500
vn 1.000000 0.003400 0.000300
vn 0.000000 0.124100 -0.992300
vn -0.062600 -0.128000 0.989800
vn 0.153000 -0.066600 0.986000
vn 0.764600 -0.136600 0.629800
vn -0.000000 0.994400 0.105500
vn -0.000000 -0.082400 0.996600
vn -0.998600 0.052000 0.008200
vn 0.998200 0.057500 0.014300
vn -0.076600 -0.599100 0.797000
vn 0.012600 0.133500 -0.991000
vn 0.648600 0.752400 0.115200
vn 0.201200 -0.971000 -0.129100
vn 0.509200 -0.711400 -0.484500
vn 0.090800 0.602900 -0.792600
vn 0.857400 0.357500 0.370100
vn -0.858700 -0.363700 -0.361000
vn 0.100100 0.609800 0.786200
vn -0.886600 -0.024100 -0.462000
vn -0.667300 0.743800 0.038800
vn -0.645200 -0.763200 -0.034800
vn -0.458900 -0.672100 0.581100
vn -0.113900 -0.605700 -0.787500
vn -0.884000 0.417200 -0.211000
vn 0.885000 -0.416500 0.208000
vn -0.183800 0.472700 0.861800
vn 0.310700 0.947300 0.077900
vn 0.106800 -0.419000 -0.901700
vn -0.153700 -0.270800 -0.950300
vn -0.099600 -0.009800 0.995000
vn 0.106100 0.043100 0.993400
vn -0.001100 -0.000300 1.000000
vn 0.008300 -0.037400 -0.999300
vn 0.011700 0.107600 -0.994100
vn -0.212500 -0.976200 0.043700
vn 0.048100 0.005200 -0.998800
vn 0.010800 0.999900 0.004100
vn 0.000000 0.000000 -1.000000
vn 0.004300 0.134000 -0.991000
vn -0.047200 -0.121400 0.991500
vn -0.999900 0.004200 0.009700
vn 1.000000 0.006000 0.007400
vn 0.050000 0.073000 -0.996100
vn -0.016000 -0.080000 0.996700
vn 0.464700 0.879200 -0.105500
vn -0.183400 -0.442600 0.877700
vn -0.063300 -0.147200 0.987100
vn -0.998500 0.054900 0.005800
vn 0.998700 0.050200 0.005300
vn -0.092100 -0.601000 0.793900
vn -0.359000 0.926300 -0.114100
vn 0.322100 0.746900 0.581700
vn -0.868900 -0.348800 -0.351100
vn 0.081100 0.601700 -0.794600
vn 0.856700 0.365500 0.364000
vn -0.859600 -0.354400 -0.368000
vn 0.116100 0.606700 0.786400
vn 0.049500 -0.349900 -0.935500
vn -0.347300 0.769300 -0.536300
vn 0.916300 -0.364900 0.165100
vn -0.099200 -0.608500 -0.787300
vn -0.882600 0.421700 -0.207800
vn 0.885500 -0.415000 0.209100
usemtl Material
s off
f 6//1 7//1 8//1
f 4//2 14//2 13//2
f 6//3 12//3 3//3
f 15//4 13//4 14//4
f 12//2 11//2 4//2
f 11//5 5//5 8//5
f 9//2 11//2 12//2
f 6//6 2//6 10//6
f 1//7 5//7 11//7
f 1//8 9//8 10//8
f 4//9 8//9 16//9
f 7//10 15//10 19//10
f 7//11 3//11 13//11
f 17//12 19//12 23//12
f 8//13 18//13 20//13
f 20//14 32//14 30//14
f 7//15 17//15 18//15
f 22//1 21//1 23//1
f 20//16 18//16 22//16
f 19//17 20//17 24//17
f 22//18 18//18 26//18
f 25//19 27//19 28//19
f 21//20 27//20 25//20
f 22//1 28//1 27//1
f 17//2 25//2 26//2
f 32//21 36//21 34//21
f 15//22 29//22 31//22
f 20//23 19//23 31//23
f 15//24 16//24 30//24
f 36//25 40//25 38//25
f 29//26 33//26 35//26
f 31//27 35//27 51//27
f 33//28 29//28 41//28
f 38//29 40//29 39//29
f 33//30 37//30 39//30
f 36//31 35//31 39//31
f 33//32 34//32 38//32
f 43//33 41//33 45//33
f 30//34 34//34 44//34
f 34//35 33//35 43//35
f 29//36 30//36 42//36
f 46//37 48//37 47//37
f 44//38 48//38 46//38
f 43//39 47//39 48//39
f 41//40 42//40 46//40
f 51//41 55//41 53//41
f 36//42 32//42 50//42
f 35//43 36//43 52//43
f 32//44 31//44 49//44
f 54//45 53//45 55//45
f 52//46 50//46 54//46
f 52//47 56//47 55//47
f 50//48 49//48 53//48
f 5//1 6//1 8//1
f 3//2 4//2 13//2
f 7//49 6//49 3//49
f 16//50 15//50 14//50
f 3//2 12//2 4//2
f 4//51 11//51 8//51
f 10//2 9//2 12//2
f 12//6 6//6 10//6
f 9//7 1//7 11//7
f 2//8 1//8 10//8
f 14//52 4//52 16//52
f 17//53 7//53 19//53
f 15//54 7//54 13//54
f 21//55 17//55 23//55
f 16//56 8//56 20//56
f 16//57 20//57 30//57
f 8//58 7//58 18//58
f 24//1 22//1 23//1
f 24//59 20//59 22//59
f 23//60 19//60 24//60
f 28//61 22//61 26//61
f 26//19 25//19 28//19
f 17//55 21//55 25//55
f 21//1 22//1 27//1
f 18//2 17//2 26//2
f 30//62 32//62 34//62
f 19//63 15//63 31//63
f 32//64 20//64 31//64
f 29//65 15//65 30//65
f 34//66 36//66 38//66
f 31//67 29//67 35//67
f 49//68 31//68 51//68
f 43//69 33//69 41//69
f 37//29 38//29 39//29
f 35//70 33//70 39//70
f 40//71 36//71 39//71
f 37//72 33//72 38//72
f 47//73 43//73 45//73
f 42//74 30//74 44//74
f 44//75 34//75 43//75
f 41//76 29//76 42//76
f 45//37 46//37 47//37
f 42//77 44//77 46//77
f 44//78 43//78 48//78
f 45//79 41//79 46//79
f 49//80 51//80 53//80
f 52//81 36//81 50//81
f 51//82 35//82 52//82
f 50//83 32//83 49//83
f 56//45 54//45 55//45
f 56//84 52//84 54//84
f 51//85 52//85 55//85
f 54//86 50//86 53//86
