# Blender v2.72 (sub 0) OBJ File: 'animtst.blend'
# www.blender.org
mtllib cuboid_000016.mtl
o Cube
v 0.145928 -0.022927 1.304152
v 0.081222 0.168812 1.761371
v 0.696144 2.000130 1.068259
v 0.761433 1.828948 0.607732
v 0.175685 0.438841 1.114717
v 0.110979 0.630579 1.571937
v 0.211167 1.914918 0.941474
v 0.277907 1.894178 0.452582
v 0.640830 -0.025622 1.375322
v 0.576123 0.166116 1.832541
v 0.670587 0.436146 1.185888
v 0.605880 0.627884 1.643107
v 0.718704 2.442418 0.936435
v 0.779972 2.353324 0.459871
v 0.246488 2.473939 0.861832
v 0.253377 2.519340 0.368679
v -0.250415 2.004035 0.821409
v -0.249537 2.015929 0.322813
v -0.250000 2.502319 0.834724
v -0.250000 2.532929 0.357845
v -0.750000 1.957924 0.773206
v -0.750000 2.068457 0.286332
v -0.750000 2.472569 0.858887
v -0.750000 2.536949 0.368718
v -0.250000 0.013625 0.267961
v -0.250000 0.138109 -0.216295
v -0.750000 0.013625 0.267961
v -0.750000 0.138109 -0.216295
v 0.242997 3.483850 0.974255
v 0.246519 3.554606 0.483420
v -0.240013 3.503374 0.968386
v -0.244737 3.534666 0.478676
v 0.275384 3.958316 1.042765
v 0.278593 4.035467 0.553706
v -0.275731 3.982216 1.011288
v -0.278654 4.010157 0.523895
v 0.250000 4.464520 1.089951
v 0.250000 4.522407 0.593313
v -0.250000 4.464520 1.089950
v -0.250000 4.522407 0.593312
v 0.405257 3.316652 0.742309
v 0.452135 3.612320 0.343127
v 0.820648 3.506601 0.929647
v 0.870490 3.797295 0.530541
v 1.166291 2.243329 0.019634
v 1.215976 2.544525 -0.376362
v 1.592558 2.422785 0.209612
v 1.642243 2.723981 -0.186383
v -0.347067 3.583344 1.175804
v -0.396036 3.288914 0.779137
v -0.778874 3.800433 1.076202
v -0.829240 3.506704 0.678435
v -1.024759 2.569683 2.043902
v -1.076223 2.268273 1.648297
v -1.466287 2.780434 1.940770
v -1.517752 2.479025 1.545165
vn -0.990700 0.010700 -0.135700
vn 0.990300 0.004100 0.138900
vn -0.129000 0.390400 0.911600
vn 0.051800 0.994400 0.092300
vn 0.989800 -0.005500 0.142400
vn 0.127100 -0.418100 -0.899400
vn 0.989800 -0.005400 0.142300
vn -0.129400 0.383500 0.914400
vn 0.129400 -0.383500 -0.914400
vn -0.059500 -0.923500 0.378900
vn 0.289200 -0.116200 -0.950200
vn -0.045800 0.143700 0.988600
vn -0.289200 0.286900 0.913300
vn 0.057300 -0.164000 0.984800
vn 0.252700 0.065600 -0.965300
vn 0.004700 0.119700 -0.992800
vn -0.183600 -0.982700 -0.023800
vn -1.000000 0.000000 -0.000000
vn 0.089600 0.172500 -0.980900
vn 0.010800 0.991400 0.130200
vn 0.098500 0.274600 -0.956500
vn 0.000000 -0.968500 -0.249000
vn -0.070000 -0.250900 0.965500
vn 1.000000 0.000200 0.000100
vn 0.048700 0.098000 -0.994000
vn -0.016500 -0.110700 0.993700
vn -1.000000 0.009900 0.000600
vn 0.999900 0.005000 0.014400
vn 0.000000 0.134300 -0.990900
vn -0.062500 -0.138500 0.988400
vn 0.154800 -0.076700 0.985000
vn 0.759400 -0.143500 0.634600
vn -0.000000 0.993300 0.115800
vn -0.000000 -0.092800 0.995700
vn -0.998600 0.051800 0.009000
vn 0.998200 0.057300 0.015600
vn -0.086100 -0.597700 0.797100
vn 0.019000 0.143400 -0.989500
vn 0.648100 0.751600 0.122800
vn 0.178500 -0.974100 -0.139100
vn 0.513100 -0.713000 -0.477900
vn 0.100100 0.601400 -0.792600
vn 0.854100 0.356800 0.378500
vn -0.855400 -0.363000 -0.369400
vn 0.102400 0.602100 0.791800
vn -0.886600 -0.019300 -0.462200
vn -0.666900 0.743700 0.046600
vn -0.649200 -0.759400 -0.042300
vn -0.457800 -0.677500 0.575700
vn -0.116200 -0.597900 -0.793100
vn -0.884300 0.419700 -0.204800
vn 0.885300 -0.419100 0.201800
vn -0.989800 0.004900 -0.142100
vn 0.991500 -0.011900 0.129700
vn -0.298700 0.439200 0.847300
vn 0.319000 0.938200 -0.134400
vn 0.234300 -0.385700 -0.892400
vn 0.079900 -0.273100 -0.958700
vn -0.256300 -0.025600 0.966300
vn -0.144600 0.148500 0.978300
vn -0.093600 -0.026500 0.995300
vn 0.017800 -0.132300 -0.991000
vn 0.024400 0.110300 -0.993600
vn -0.227300 -0.973800 0.010300
vn -0.021100 0.067600 -0.997500
vn -0.056200 0.996400 0.064000
vn 0.000000 0.252000 -0.967700
vn -0.000000 -0.267900 0.963400
vn 1.000000 -0.000700 0.001700
vn 0.003700 0.144400 -0.989500
vn -0.061500 -0.131500 0.989400
vn -0.999900 0.004100 0.009900
vn 1.000000 0.002600 0.007600
vn 0.049400 0.083900 -0.995300
vn -0.015800 -0.090400 0.995800
vn 0.465100 0.879700 -0.099100
vn -0.189500 -0.447600 0.873900
vn -0.063100 -0.157400 0.985500
vn -0.998500 0.055000 0.006400
vn 0.998800 0.049500 0.005800
vn -0.101400 -0.599600 0.793900
vn -0.350600 0.927100 -0.132400
vn 0.322800 0.745400 0.583200
vn -0.867500 -0.345500 -0.357800
vn 0.090600 0.600300 -0.794700
vn 0.853400 0.364900 0.372300
vn -0.856300 -0.353700 -0.376400
vn 0.118500 0.599000 0.791900
vn 0.047400 -0.340100 -0.939200
vn -0.348000 0.774700 -0.528000
vn 0.915900 -0.368100 0.160100
vn -0.101500 -0.600800 -0.793000
vn -0.882900 0.424200 -0.201500
vn 0.885700 -0.417500 0.202900
usemtl Material
s off
f 6//1 7//1 8//1
f 3//2 4//2 14//2
f 6//3 12//3 3//3
f 16//4 15//4 13//4
f 12//5 11//5 4//5
f 11//6 5//6 8//6
f 9//7 11//7 12//7
f 6//8 2//8 10//8
f 5//9 11//9 9//9
f 1//10 9//10 10//10
f 4//11 8//11 16//11
f 7//12 15//12 19//12
f 7//13 3//13 13//13
f 19//14 23//14 21//14
f 8//15 18//15 20//15
f 20//16 32//16 30//16
f 7//17 17//17 18//17
f 21//18 23//18 24//18
f 18//19 22//19 24//19
f 20//20 24//20 23//20
f 22//21 18//21 26//21
f 25//22 27//22 28//22
f 17//23 21//23 27//23
f 21//18 22//18 28//18
f 17//24 25//24 26//24
f 32//25 36//25 34//25
f 15//26 29//26 31//26
f 20//27 19//27 31//27
f 15//28 16//28 30//28
f 36//29 40//29 38//29
f 29//30 33//30 35//30
f 31//31 35//31 51//31
f 33//32 29//32 41//32
f 38//33 40//33 39//33
f 33//34 37//34 39//34
f 36//35 35//35 39//35
f 33//36 34//36 38//36
f 43//37 41//37 45//37
f 30//38 34//38 44//38
f 34//39 33//39 43//39
f 29//40 30//40 42//40
f 45//41 46//41 48//41
f 44//42 48//42 46//42
f 43//43 47//43 48//43
f 41//44 42//44 46//44
f 51//45 55//45 53//45
f 36//46 32//46 50//46
f 35//47 36//47 52//47
f 32//48 31//48 49//48
f 53//49 55//49 56//49
f 52//50 50//50 54//50
f 52//51 56//51 55//51
f 50//52 49//52 53//52
f 5//53 6//53 8//53
f 13//54 3//54 14//54
f 7//55 6//55 3//55
f 14//56 16//56 13//56
f 3//5 12//5 4//5
f 4//57 11//57 8//57
f 10//7 9//7 12//7
f 12//8 6//8 10//8
f 1//9 5//9 9//9
f 2//10 1//10 10//10
f 14//58 4//58 16//58
f 17//59 7//59 19//59
f 15//60 7//60 13//60
f 17//61 19//61 21//61
f 16//62 8//62 20//62
f 16//63 20//63 30//63
f 8//64 7//64 18//64
f 22//18 21//18 24//18
f 20//65 18//65 24//65
f 19//66 20//66 23//66
f 28//67 22//67 26//67
f 26//22 25//22 28//22
f 25//68 17//68 27//68
f 27//18 21//18 28//18
f 18//69 17//69 26//69
f 30//70 32//70 34//70
f 19//71 15//71 31//71
f 32//72 20//72 31//72
f 29//73 15//73 30//73
f 34//74 36//74 38//74
f 31//75 29//75 35//75
f 49//76 31//76 51//76
f 43//77 33//77 41//77
f 37//33 38//33 39//33
f 35//78 33//78 39//78
f 40//79 36//79 39//79
f 37//80 33//80 38//80
f 47//81 43//81 45//81
f 42//82 30//82 44//82
f 44//83 34//83 43//83
f 41//84 29//84 42//84
f 47//41 45//41 48//41
f 42//85 44//85 46//85
f 44//86 43//86 48//86
f 45//87 41//87 46//87
f 49//88 51//88 53//88
f 52//89 36//89 50//89
f 51//90 35//90 52//90
f 50//91 32//91 49//91
f 54//49 53//49 56//49
f 56//92 52//92 54//92
f 51//93 52//93 55//93
f 54//94 50//94 53//94
