# Blender v2.72 (sub 0) OBJ File: 'animtst.blend'
# www.blender.org
mtllib cuboid_000014.mtl
o Cube
v 0.155449 -0.010526 1.076907
v 0.096445 0.198159 1.527428
v 0.701515 2.001077 0.757779
v 0.761049 1.814793 0.303210
v 0.182549 0.443843 0.869990
v 0.123545 0.652527 1.320511
v 0.214778 1.904934 0.634366
v 0.275632 1.882545 0.145387
v 0.651215 -0.010526 1.141837
v 0.592212 0.198159 1.592358
v 0.678315 0.443843 0.934919
v 0.619311 0.652527 1.385440
v 0.722009 2.434359 0.616150
v 0.777871 2.336890 0.142565
v 0.246816 2.462905 0.550186
v 0.253098 2.507949 0.057124
v -0.250381 1.994854 0.512005
v -0.249580 2.002467 0.012533
v -0.250000 2.492229 0.522202
v -0.250000 2.521487 0.045377
v -0.750000 1.964710 0.482496
v -0.750000 2.035194 -0.012411
v -0.750000 2.476427 0.536468
v -0.750000 2.518271 0.041861
v -0.250000 -0.014734 0.160442
v -0.250000 0.064674 -0.333212
v -0.750000 -0.014734 0.160442
v -0.750000 0.064674 -0.333212
v 0.242997 3.472744 0.662454
v 0.246519 3.543499 0.171619
v -0.240013 3.492267 0.656585
v -0.244737 3.523559 0.166875
v 0.275384 3.947210 0.730964
v 0.278593 4.024361 0.241906
v -0.275731 3.971109 0.699487
v -0.278654 3.999050 0.212094
v 0.250000 4.453413 0.778150
v 0.250000 4.511300 0.281512
v -0.250000 4.453413 0.778149
v -0.250000 4.511300 0.281512
v 0.405257 3.305546 0.430508
v 0.452135 3.601213 0.031326
v 0.820648 3.495494 0.617846
v 0.870490 3.786188 0.218741
v 1.166291 2.232222 -0.292167
v 1.215976 2.533418 -0.688162
v 1.592558 2.411678 -0.102188
v 1.642243 2.712874 -0.498184
v -0.347067 3.572237 0.864003
v -0.396036 3.277808 0.467336
v -0.778874 3.789326 0.764401
v -0.829240 3.495597 0.366634
v -1.024759 2.558576 1.732101
v -1.076223 2.257166 1.336496
v -1.466287 2.769327 1.628970
v -1.517752 2.467918 1.233364
vn -0.992300 0.004500 -0.123700
vn 0.991900 0.007100 0.127000
vn -0.117600 0.424900 0.897600
vn 0.047100 0.994700 0.091500
vn 0.991500 -0.000000 0.129900
vn 0.115800 -0.452800 -0.884100
vn -0.118000 0.417400 0.901000
vn 0.118000 -0.417400 -0.901000
vn -0.054200 -0.908700 0.413800
vn 0.291200 -0.123400 -0.948700
vn -0.046700 0.151600 0.987300
vn -0.290700 0.309700 0.905300
vn 0.031700 -0.104800 0.994000
vn 0.257900 0.061200 -0.964200
vn 0.004700 0.120300 -0.992700
vn -0.185900 -0.982500 -0.015300
vn -1.000000 0.000000 -0.000000
vn 0.056700 0.111500 -0.992100
vn -0.007000 0.996400 0.084300
vn 0.060400 0.175300 -0.982700
vn -0.000000 -0.987300 -0.158800
vn -0.048600 -0.160400 0.985900
vn 1.000000 0.000200 0.000000
vn 0.048700 0.098000 -0.994000
vn -0.016500 -0.110500 0.993700
vn -1.000000 0.009900 0.000600
vn 0.999900 0.004900 0.013200
vn 0.000000 0.134300 -0.990900
vn -0.062500 -0.138500 0.988400
vn 0.154800 -0.076700 0.985000
vn 0.759400 -0.143500 0.634600
vn -0.000000 0.993300 0.115800
vn -0.000000 -0.092800 0.995700
vn -0.998600 0.051800 0.009000
vn 0.998200 0.057300 0.015600
vn -0.086100 -0.597700 0.797100
vn 0.019000 0.143400 -0.989500
vn 0.648100 0.751600 0.122800
vn 0.178500 -0.974100 -0.139100
vn 0.513100 -0.713000 -0.477900
vn 0.100100 0.601400 -0.792600
vn 0.854100 0.356800 0.378500
vn -0.855400 -0.363000 -0.369400
vn 0.102400 0.602100 0.791800
vn -0.886600 -0.019300 -0.462200
vn -0.666900 0.743700 0.046600
vn -0.649200 -0.759400 -0.042300
vn -0.457800 -0.677500 0.575700
vn -0.116200 -0.597900 -0.793100
vn -0.884300 0.419700 -0.204800
vn 0.885300 -0.419100 0.201800
vn -0.991600 -0.001000 -0.129400
vn 0.992900 -0.008100 0.118800
vn -0.303300 0.474700 0.826200
vn 0.328700 0.932000 -0.153000
vn 0.227400 -0.418800 -0.879100
vn 0.059000 -0.295300 -0.953600
vn -0.257900 -0.019600 0.966000
vn -0.126700 0.155100 0.979700
vn -0.057700 -0.020400 0.998100
vn 0.019400 -0.139000 -0.990100
vn 0.026200 0.110000 -0.993600
vn -0.226500 -0.973900 0.016400
vn 0.006600 0.063200 -0.998000
vn -0.029800 0.997700 0.061200
vn 0.000000 0.160700 -0.987000
vn -0.000000 -0.172300 0.985000
vn 1.000000 -0.000500 0.001600
vn 0.003700 0.144400 -0.989500
vn -0.063500 -0.132300 0.989200
vn -0.999900 0.004100 0.009900
vn 1.000000 0.002900 0.007600
vn 0.049400 0.083900 -0.995300
vn -0.015800 -0.090400 0.995800
vn 0.465100 0.879700 -0.099100
vn -0.189500 -0.447600 0.873900
vn -0.063100 -0.157400 0.985500
vn -0.998500 0.055000 0.006400
vn 0.998800 0.049500 0.005800
vn -0.101400 -0.599600 0.793900
vn -0.350600 0.927100 -0.132400
vn 0.322800 0.745400 0.583200
vn -0.867500 -0.345500 -0.357800
vn 0.090600 0.600300 -0.794700
vn 0.853400 0.364900 0.372300
vn -0.856300 -0.353700 -0.376400
vn 0.118500 0.599000 0.791900
vn 0.047400 -0.340100 -0.939200
vn -0.348000 0.774700 -0.528000
vn 0.915900 -0.368100 0.160100
vn -0.101500 -0.600800 -0.793000
vn -0.882900 0.424200 -0.201500
vn 0.885700 -0.417500 0.202900
usemtl Material
s off
f 6//1 7//1 8//1
f 3//2 4//2 14//2
f 6//3 12//3 3//3
f 16//4 15//4 13//4
f 12//5 11//5 4//5
f 11//6 5//6 8//6
f 11//5 12//5 10//5
f 6//7 2//7 10//7
f 5//8 11//8 9//8
f 1//9 9//9 10//9
f 4//10 8//10 16//10
f 7//11 15//11 19//11
f 7//12 3//12 13//12
f 19//13 23//13 21//13
f 8//14 18//14 20//14
f 20//15 32//15 30//15
f 7//16 17//16 18//16
f 21//17 23//17 24//17
f 18//18 22//18 24//18
f 20//19 24//19 23//19
f 22//20 18//20 26//20
f 26//21 25//21 27//21
f 17//22 21//22 27//22
f 21//17 22//17 28//17
f 17//23 25//23 26//23
f 32//24 36//24 34//24
f 15//25 29//25 31//25
f 20//26 19//26 31//26
f 15//27 16//27 30//27
f 36//28 40//28 38//28
f 29//29 33//29 35//29
f 31//30 35//30 51//30
f 33//31 29//31 41//31
f 38//32 40//32 39//32
f 33//33 37//33 39//33
f 36//34 35//34 39//34
f 33//35 34//35 38//35
f 43//36 41//36 45//36
f 30//37 34//37 44//37
f 34//38 33//38 43//38
f 29//39 30//39 42//39
f 45//40 46//40 48//40
f 44//41 48//41 46//41
f 43//42 47//42 48//42
f 41//43 42//43 46//43
f 51//44 55//44 53//44
f 36//45 32//45 50//45
f 35//46 36//46 52//46
f 32//47 31//47 49//47
f 54//48 53//48 55//48
f 52//49 50//49 54//49
f 52//50 56//50 55//50
f 50//51 49//51 53//51
f 5//52 6//52 8//52
f 13//53 3//53 14//53
f 7//54 6//54 3//54
f 14//55 16//55 13//55
f 3//5 12//5 4//5
f 4//56 11//56 8//56
f 9//5 11//5 10//5
f 12//7 6//7 10//7
f 1//8 5//8 9//8
f 2//9 1//9 10//9
f 14//57 4//57 16//57
f 17//58 7//58 19//58
f 15//59 7//59 13//59
f 17//60 19//60 21//60
f 16//61 8//61 20//61
f 16//62 20//62 30//62
f 8//63 7//63 18//63
f 22//17 21//17 24//17
f 20//64 18//64 24//64
f 19//65 20//65 23//65
f 28//66 22//66 26//66
f 28//21 26//21 27//21
f 25//67 17//67 27//67
f 27//17 21//17 28//17
f 18//68 17//68 26//68
f 30//69 32//69 34//69
f 19//70 15//70 31//70
f 32//71 20//71 31//71
f 29//72 15//72 30//72
f 34//73 36//73 38//73
f 31//74 29//74 35//74
f 49//75 31//75 51//75
f 43//76 33//76 41//76
f 37//32 38//32 39//32
f 35//77 33//77 39//77
f 40//78 36//78 39//78
f 37//79 33//79 38//79
f 47//80 43//80 45//80
f 42//81 30//81 44//81
f 44//82 34//82 43//82
f 41//83 29//83 42//83
f 47//40 45//40 48//40
f 42//84 44//84 46//84
f 44//85 43//85 48//85
f 45//86 41//86 46//86
f 49//87 51//87 53//87
f 52//88 36//88 50//88
f 51//89 35//89 52//89
f 50//90 32//90 49//90
f 56//48 54//48 55//48
f 56//91 52//91 54//91
f 51//92 52//92 55//92
f 54//93 50//93 53//93
