# Blender v2.72 (sub 0) OBJ File: 'animtst.blend'
# www.blender.org
mtllib cuboid_000002.mtl
o Cube
v 0.250000 -0.009779 -0.118739
v 0.250000 0.019829 0.380384
v 0.750000 2.014514 0.260629
v 0.750000 1.988063 -0.238477
v 0.250000 0.489343 -0.148347
v 0.250000 0.518952 0.350775
v 0.250000 2.001689 0.251237
v 0.250000 1.998852 -0.248892
v 0.750000 -0.009779 -0.118739
v 0.750000 0.019829 0.380384
v 0.750000 0.489343 -0.148347
v 0.750000 0.518952 0.350776
v 0.750000 2.507648 0.241254
v 0.750000 2.493007 -0.258283
v 0.250000 2.500324 0.249629
v 0.250000 2.499701 -0.250353
v -0.250000 2.000000 0.250000
v -0.250000 2.000000 -0.250000
v -0.250000 2.500000 0.250000
v -0.250000 2.500000 -0.250000
v -0.750000 2.000000 0.250000
v -0.750000 2.000000 -0.250000
v -0.750000 2.500000 0.250000
v -0.750000 2.500000 -0.250000
v -0.250000 0.000000 0.250000
v -0.250000 0.000000 -0.250000
v -0.750000 0.000000 0.250000
v -0.750000 0.000000 -0.250000
v 0.244761 3.519808 0.250532
v 0.245189 3.520580 -0.249398
v -0.241705 3.519659 0.249971
v -0.242925 3.513657 -0.249903
v 0.278216 4.004713 0.252408
v 0.277384 4.008135 -0.247495
v -0.275220 4.005113 0.247541
v -0.273718 4.001177 -0.252170
v 0.250000 4.500000 0.250000
v 0.250000 4.500000 -0.250000
v -0.250000 4.500000 0.250000
v -0.250000 4.500000 -0.250000
v 0.424447 3.382080 0.219213
v 0.421659 3.425966 -0.278926
v 0.847078 3.638002 0.240384
v 0.847386 3.677586 -0.257719
v 1.161891 2.083085 0.098690
v 1.160827 2.128480 -0.399244
v 1.595739 2.330688 0.120336
v 1.594675 2.376083 -0.377598
v -0.424028 3.370151 0.284284
v -0.419623 3.325204 -0.213557
v -0.826628 3.657382 0.256587
v -0.823542 3.612879 -0.241389
v -1.267923 2.136745 0.391447
v -1.264719 2.091475 -0.106489
v -1.679602 2.419089 0.363129
v -1.676398 2.373819 -0.134807
vn -1.000000 -0.000000 -0.000000
vn 1.000000 0.000000 0.000000
vn -0.000000 0.060200 0.998200
vn -0.015100 0.999500 -0.029300
vn 0.000000 -0.066500 -0.997800
vn -0.000000 0.059200 0.998200
vn 0.000000 -0.059200 -0.998200
vn -0.000000 -0.998200 0.059200
vn 0.020800 -0.002900 -0.999800
vn 0.000700 0.000000 1.000000
vn -0.019800 0.039300 0.999000
vn -0.000000 0.000000 1.000000
vn 0.002200 0.000000 -1.000000
vn 0.001000 0.000100 -1.000000
vn 0.003400 -1.000000 0.000000
vn 0.000000 0.000000 -1.000000
vn 0.000000 1.000000 0.000000
vn 0.000000 -1.000000 0.000000
vn 0.008500 -0.004100 -1.000000
vn 0.000700 -0.000900 1.000000
vn -1.000000 0.008100 -0.000000
vn 1.000000 0.004700 0.000900
vn 0.000000 0.004300 -1.000000
vn -0.008800 -0.003300 1.000000
vn -0.023500 0.063200 0.997700
vn 0.160600 -0.014900 0.986900
vn -0.000000 0.004900 1.000000
vn -0.998700 0.050900 -0.003400
vn 0.998500 0.055600 -0.001300
vn 0.004500 -0.089800 0.995900
vn -0.015100 0.004900 -0.999900
vn 0.541900 0.840400 0.004900
vn -0.472700 -0.881200 -0.001800
vn 0.497100 -0.864000 -0.079800
vn -0.002000 0.090600 -0.995900
vn 0.868700 0.493500 0.043100
vn -0.869800 -0.491900 -0.038500
vn -0.006600 0.090200 0.995900
vn -0.184800 -0.016200 -0.982600
vn -0.577000 0.816700 -0.008200
vn 0.634900 -0.772500 0.007700
vn -0.567500 -0.820300 0.070900
vn 0.004800 -0.089700 -0.996000
vn -0.824700 0.562800 -0.056500
vn 0.826300 -0.560300 0.057900
vn -0.020500 0.067000 0.997500
vn 0.013400 0.999900 -0.001200
vn 0.019500 -0.060000 -0.998000
vn -0.016400 -0.039200 -0.999100
vn -0.002500 0.003200 1.000000
vn 0.016700 0.003200 0.999900
vn -0.000700 -0.002900 -1.000000
vn -0.000700 0.000900 -1.000000
vn -0.002300 -1.000000 0.005700
vn 0.001000 0.003800 -1.000000
vn -0.001200 0.000000 1.000000
vn -1.000000 0.007000 0.002400
vn 1.000000 0.005100 -0.000000
vn 0.008500 -0.004600 -1.000000
vn -0.001200 0.004900 1.000000
vn 0.171600 0.016800 0.985000
vn -0.015600 -0.056900 0.998300
vn -0.008800 -0.004500 1.000000
vn -0.998900 0.047500 -0.000000
vn 0.998400 0.056900 0.000000
vn 0.001900 -0.090400 0.995900
vn -0.062800 0.188800 -0.980000
vn 0.501400 0.862500 0.068900
vn -0.614200 -0.786400 -0.065800
vn -0.003700 0.090200 -0.995900
vn 0.868100 0.494800 0.039900
vn -0.870500 -0.490200 -0.042800
vn -0.004600 0.089700 0.996000
vn 0.024400 -0.062300 -0.997800
vn -0.532700 0.842700 -0.078600
vn 0.734300 -0.675500 0.067500
vn 0.006600 -0.090200 -0.995900
vn -0.824500 0.563200 -0.055400
vn 0.826000 -0.560900 0.056300
usemtl Material
s off
f 6//1 7//1 8//1
f 4//2 14//2 13//2
f 6//3 12//3 3//3
f 15//4 13//4 14//4
f 12//2 11//2 4//2
f 11//5 5//5 8//5
f 11//2 12//2 10//2
f 6//6 2//6 10//6
f 1//7 5//7 11//7
f 1//8 9//8 10//8
f 4//9 8//9 16//9
f 15//10 19//10 17//10
f 7//11 3//11 13//11
f 19//12 23//12 21//12
f 8//13 18//13 20//13
f 20//14 32//14 30//14
f 7//15 17//15 18//15
f 21//1 23//1 24//1
f 18//16 22//16 24//16
f 20//17 24//17 23//17
f 18//16 26//16 28//16
f 25//18 27//18 28//18
f 21//12 27//12 25//12
f 22//1 28//1 27//1
f 17//2 25//2 26//2
f 32//19 36//19 34//19
f 19//20 15//20 29//20
f 20//21 19//21 31//21
f 16//22 30//22 29//22
f 36//23 40//23 38//23
f 29//24 33//24 35//24
f 35//25 51//25 49//25
f 33//26 29//26 41//26
f 38//17 40//17 39//17
f 33//27 37//27 39//27
f 36//28 35//28 39//28
f 33//29 34//29 38//29
f 43//30 41//30 45//30
f 30//31 34//31 44//31
f 34//32 33//32 43//32
f 29//33 30//33 42//33
f 45//34 46//34 48//34
f 44//35 48//35 46//35
f 43//36 47//36 48//36
f 41//37 42//37 46//37
f 51//38 55//38 53//38
f 36//39 32//39 50//39
f 35//40 36//40 52//40
f 32//41 31//41 49//41
f 53//42 55//42 56//42
f 52//43 50//43 54//43
f 52//44 56//44 55//44
f 50//45 49//45 53//45
f 5//1 6//1 8//1
f 3//2 4//2 13//2
f 7//46 6//46 3//46
f 16//47 15//47 14//47
f 3//2 12//2 4//2
f 4//48 11//48 8//48
f 9//2 11//2 10//2
f 12//6 6//6 10//6
f 9//7 1//7 11//7
f 2//8 1//8 10//8
f 14//49 4//49 16//49
f 7//50 15//50 17//50
f 15//51 7//51 13//51
f 17//12 19//12 21//12
f 16//52 8//52 20//52
f 16//53 20//53 30//53
f 8//54 7//54 18//54
f 22//1 21//1 24//1
f 20//16 18//16 24//16
f 19//17 20//17 23//17
f 22//16 18//16 28//16
f 26//18 25//18 28//18
f 17//12 21//12 25//12
f 21//1 22//1 27//1
f 18//2 17//2 26//2
f 30//55 32//55 34//55
f 31//56 19//56 29//56
f 32//57 20//57 31//57
f 15//58 16//58 29//58
f 34//59 36//59 38//59
f 31//60 29//60 35//60
f 31//61 35//61 49//61
f 43//62 33//62 41//62
f 37//17 38//17 39//17
f 35//63 33//63 39//63
f 40//64 36//64 39//64
f 37//65 33//65 38//65
f 47//66 43//66 45//66
f 42//67 30//67 44//67
f 44//68 34//68 43//68
f 41//69 29//69 42//69
f 47//34 45//34 48//34
f 42//70 44//70 46//70
f 44//71 43//71 48//71
f 45//72 41//72 46//72
f 49//73 51//73 53//73
f 52//74 36//74 50//74
f 51//75 35//75 52//75
f 50//76 32//76 49//76
f 54//42 53//42 56//42
f 56//77 52//77 54//77
f 51//78 52//78 55//78
f 54//79 50//79 53//79
