# Blender v2.72 (sub 0) OBJ File: 'animtst.blend'
# www.blender.org
mtllib cuboid_000017.mtl
o Cube
v 0.145567 -0.042089 1.330157
v 0.080884 0.100174 1.805107
v 0.696124 1.997885 1.312429
v 0.761393 1.870811 0.835870
v 0.175404 0.437135 1.190678
v 0.110721 0.579398 1.665628
v 0.211164 1.943088 1.194943
v 0.277904 1.927136 0.704710
v 0.640467 -0.052386 1.400642
v 0.575784 0.089876 1.875592
v 0.670304 0.426837 1.261162
v 0.605620 0.569100 1.736113
v 0.718732 2.463676 1.209975
v 0.779989 2.399039 0.724595
v 0.246489 2.504958 1.117263
v 0.253377 2.551401 0.623739
v -0.250415 2.034309 1.074639
v -0.249537 2.048625 0.576728
v -0.250000 2.532991 1.089710
v -0.250000 2.564378 0.612855
v -0.750000 1.979815 1.014962
v -0.750000 2.113010 0.534372
v -0.750000 2.494816 1.118973
v -0.750000 2.571953 0.632294
v -0.250000 0.063345 0.405988
v -0.250000 0.213322 -0.070988
v -0.750000 0.063345 0.405988
v -0.750000 0.213322 -0.070989
v 0.242997 3.515135 1.228869
v 0.246519 3.585891 0.738034
v -0.240013 3.534658 1.223000
v -0.244737 3.565950 0.733290
v 0.275384 3.989601 1.297379
v 0.278593 4.066752 0.808320
v -0.275731 4.013501 1.265902
v -0.278654 4.041442 0.778509
v 0.250000 4.495804 1.344565
v 0.250000 4.553692 0.847927
v -0.250000 4.495804 1.344564
v -0.250000 4.553692 0.847926
v 0.405257 3.347937 0.996923
v 0.452135 3.643605 0.597741
v 0.820648 3.537885 1.184261
v 0.870490 3.828579 0.785155
v 1.166291 2.274613 0.274248
v 1.215976 2.575809 -0.121747
v 1.592558 2.454070 0.464227
v 1.642243 2.755265 0.068231
v -0.347067 3.614628 1.430418
v -0.396036 3.320199 1.033751
v -0.778874 3.831717 1.330816
v -0.829240 3.537989 0.933049
v -1.024759 2.600967 2.298516
v -1.076223 2.299558 1.902911
v -1.466287 2.811719 2.195385
v -1.517752 2.510309 1.799779
vn -0.990400 0.026100 -0.135700
vn 0.990500 -0.006000 0.137200
vn -0.129100 0.289400 0.948500
vn 0.068300 0.993200 0.094400
vn 0.989800 -0.020900 0.141100
vn 0.127400 -0.315500 -0.940400
vn 0.989800 -0.020600 0.141000
vn -0.129400 0.284500 0.949900
vn 0.129400 -0.284500 -0.949900
vn -0.059700 -0.958400 0.279000
vn 0.247600 -0.115100 -0.962000
vn -0.047000 0.139700 0.989100
vn -0.253100 0.219500 0.942200
vn 0.072300 -0.197400 0.977600
vn 0.250000 0.067900 -0.965900
vn 0.004700 0.119400 -0.992800
vn -0.186600 -0.982000 -0.028600
vn -1.000000 0.000000 -0.000000
vn 0.109000 0.207400 -0.972200
vn 0.021000 0.987500 0.156500
vn 0.121700 0.330300 -0.936000
vn -0.000000 -0.954000 -0.300000
vn -0.080500 -0.301900 0.949900
vn 1.000000 0.000200 0.000100
vn 0.048700 0.098000 -0.994000
vn -0.016500 -0.109900 0.993800
vn -1.000000 0.009900 0.000600
vn 0.999900 0.005000 0.014400
vn 0.000000 0.134300 -0.990900
vn -0.062500 -0.138500 0.988400
vn 0.154800 -0.076700 0.985000
vn 0.759400 -0.143500 0.634600
vn -0.000000 0.993300 0.115800
vn -0.000000 -0.092800 0.995700
vn -0.998600 0.051800 0.009000
vn 0.998200 0.057300 0.015600
vn -0.086100 -0.597700 0.797100
vn 0.019000 0.143400 -0.989500
vn 0.648100 0.751600 0.122800
vn 0.178500 -0.974100 -0.139100
vn 0.513100 -0.713000 -0.477900
vn 0.100100 0.601400 -0.792600
vn 0.854100 0.356800 0.378500
vn -0.855400 -0.363000 -0.369400
vn 0.102400 0.602100 0.791800
vn -0.886600 -0.019300 -0.462200
vn -0.666900 0.743700 0.046600
vn -0.649200 -0.759400 -0.042300
vn -0.457800 -0.677500 0.575700
vn -0.116200 -0.597900 -0.793100
vn -0.884300 0.419700 -0.204800
vn 0.885300 -0.419100 0.201800
vn -0.989700 0.022000 -0.141400
vn 0.991600 -0.020000 0.127800
vn -0.257400 0.332200 0.907400
vn 0.292600 0.952000 -0.089800
vn 0.989800 -0.020800 0.141100
vn 0.219300 -0.288400 -0.932100
vn 0.125400 -0.208700 -0.969900
vn -0.257500 -0.029000 0.965900
vn -0.178300 0.145700 0.973100
vn -0.115300 -0.029900 0.992900
vn 0.018100 -0.127900 -0.991600
vn 0.024300 0.109900 -0.993600
vn -0.224700 -0.974400 0.001100
vn -0.037700 0.069800 -0.996800
vn -0.072200 0.995200 0.065500
vn 0.000000 0.303600 -0.952800
vn -0.000000 -0.321300 0.947000
vn 1.000000 -0.000900 0.001700
vn 0.003700 0.144400 -0.989500
vn -0.062300 -0.131000 0.989400
vn -0.999900 0.004100 0.009900
vn 1.000000 0.002600 0.007600
vn 0.049400 0.083900 -0.995300
vn -0.015800 -0.090400 0.995800
vn 0.465100 0.879700 -0.099100
vn -0.189500 -0.447600 0.873900
vn -0.063100 -0.157400 0.985500
vn -0.998500 0.055000 0.006400
vn 0.998800 0.049500 0.005800
vn -0.101400 -0.599600 0.793900
vn -0.350600 0.927100 -0.132400
vn 0.322800 0.745400 0.583200
vn -0.867500 -0.345500 -0.357800
vn 0.090600 0.600300 -0.794700
vn 0.853400 0.364900 0.372300
vn -0.856300 -0.353700 -0.376400
vn 0.118500 0.599000 0.791900
vn 0.047400 -0.340100 -0.939200
vn -0.348000 0.774700 -0.528000
vn 0.915900 -0.368100 0.160100
vn -0.101500 -0.600800 -0.793000
vn -0.882900 0.424200 -0.201500
vn 0.885700 -0.417500 0.202900
usemtl Material
s off
f 6//1 7//1 8//1
f 3//2 4//2 14//2
f 6//3 12//3 3//3
f 16//4 15//4 13//4
f 12//5 11//5 4//5
f 11//6 5//6 8//6
f 9//7 11//7 12//7
f 6//8 2//8 10//8
f 5//9 11//9 9//9
f 1//10 9//10 10//10
f 4//11 8//11 16//11
f 7//12 15//12 19//12
f 7//13 3//13 13//13
f 19//14 23//14 21//14
f 8//15 18//15 20//15
f 20//16 32//16 30//16
f 7//17 17//17 18//17
f 21//18 23//18 24//18
f 18//19 22//19 24//19
f 20//20 24//20 23//20
f 22//21 18//21 26//21
f 25//22 27//22 28//22
f 17//23 21//23 27//23
f 21//18 22//18 28//18
f 17//24 25//24 26//24
f 32//25 36//25 34//25
f 15//26 29//26 31//26
f 20//27 19//27 31//27
f 15//28 16//28 30//28
f 36//29 40//29 38//29
f 29//30 33//30 35//30
f 31//31 35//31 51//31
f 33//32 29//32 41//32
f 38//33 40//33 39//33
f 33//34 37//34 39//34
f 36//35 35//35 39//35
f 33//36 34//36 38//36
f 43//37 41//37 45//37
f 30//38 34//38 44//38
f 34//39 33//39 43//39
f 29//40 30//40 42//40
f 45//41 46//41 48//41
f 44//42 48//42 46//42
f 43//43 47//43 48//43
f 41//44 42//44 46//44
f 51//45 55//45 53//45
f 36//46 32//46 50//46
f 35//47 36//47 52//47
f 32//48 31//48 49//48
f 53//49 55//49 56//49
f 52//50 50//50 54//50
f 52//51 56//51 55//51
f 50//52 49//52 53//52
f 5//53 6//53 8//53
f 13//54 3//54 14//54
f 7//55 6//55 3//55
f 14//56 16//56 13//56
f 3//57 12//57 4//57
f 4//58 11//58 8//58
f 10//7 9//7 12//7
f 12//8 6//8 10//8
f 1//9 5//9 9//9
f 2//10 1//10 10//10
f 14//59 4//59 16//59
f 17//60 7//60 19//60
f 15//61 7//61 13//61
f 17//62 19//62 21//62
f 16//63 8//63 20//63
f 16//64 20//64 30//64
f 8//65 7//65 18//65
f 22//18 21//18 24//18
f 20//66 18//66 24//66
f 19//67 20//67 23//67
f 28//68 22//68 26//68
f 26//22 25//22 28//22
f 25//69 17//69 27//69
f 27//18 21//18 28//18
f 18//70 17//70 26//70
f 30//71 32//71 34//71
f 19//72 15//72 31//72
f 32//73 20//73 31//73
f 29//74 15//74 30//74
f 34//75 36//75 38//75
f 31//76 29//76 35//76
f 49//77 31//77 51//77
f 43//78 33//78 41//78
f 37//33 38//33 39//33
f 35//79 33//79 39//79
f 40//80 36//80 39//80
f 37//81 33//81 38//81
f 47//82 43//82 45//82
f 42//83 30//83 44//83
f 44//84 34//84 43//84
f 41//85 29//85 42//85
f 47//41 45//41 48//41
f 42//86 44//86 46//86
f 44//87 43//87 48//87
f 45//88 41//88 46//88
f 49//89 51//89 53//89
f 52//90 36//90 50//90
f 51//91 35//91 52//91
f 50//92 32//92 49//92
f 54//49 53//49 56//49
f 56//93 52//93 54//93
f 51//94 52//94 55//94
f 54//95 50//95 53//95
