# Blender v2.72 (sub 0) OBJ File: 'animtst.blend'
# www.blender.org
mtllib cuboid_000010.mtl
o Cube
v 0.250000 -0.010526 0.780304
v 0.250000 0.198159 1.234672
v 0.750000 2.001077 0.392966
v 0.750000 1.814793 -0.065485
v 0.250000 0.443843 0.571619
v 0.250000 0.652527 1.025988
v 0.250000 1.904934 0.336565
v 0.250000 1.882545 -0.157557
v 0.750000 -0.010526 0.780304
v 0.750000 0.198159 1.234672
v 0.750000 0.443843 0.571619
v 0.750000 0.652527 1.025988
v 0.750000 2.434359 0.259635
v 0.750000 2.336890 -0.217386
v 0.250000 2.462905 0.281905
v 0.250000 2.507949 -0.211725
v -0.250000 1.998651 0.251012
v -0.250000 1.998724 -0.249057
v -0.250000 2.493815 0.255932
v -0.250000 2.520767 -0.220506
v -0.750000 2.000000 0.250000
v -0.750000 2.000000 -0.250000
v -0.750000 2.499809 0.250183
v -0.750000 2.502007 -0.247149
v -0.250000 0.000000 0.250000
v -0.250000 0.000000 -0.250000
v -0.750000 0.000000 0.250000
v -0.750000 0.000000 -0.250000
v 0.242997 3.472744 0.397642
v 0.246519 3.543499 -0.093194
v -0.240013 3.492267 0.391773
v -0.244737 3.523559 -0.097938
v 0.275384 3.947210 0.466151
v 0.278593 4.024361 -0.022907
v -0.275731 3.971109 0.434674
v -0.278654 3.999050 -0.052719
v 0.250000 4.453413 0.513337
v 0.250000 4.511300 0.016699
v -0.250000 4.453413 0.513337
v -0.250000 4.511300 0.016699
v 0.405257 3.305546 0.165695
v 0.452135 3.601213 -0.233486
v 0.820648 3.495494 0.353033
v 0.870490 3.786188 -0.046072
v 1.166291 2.232222 -0.556979
v 1.215976 2.533418 -0.952975
v 1.592558 2.411678 -0.367001
v 1.642243 2.712874 -0.762996
v -0.347067 3.572237 0.599191
v -0.396036 3.277808 0.202523
v -0.778874 3.789326 0.499588
v -0.829240 3.495597 0.101821
v -1.024759 2.558576 1.467289
v -1.076223 2.257166 1.071683
v -1.466287 2.769327 1.364157
v -1.517752 2.467918 0.968551
vn -1.000000 -0.000000 -0.000000
vn 1.000000 0.000000 0.000000
vn -0.000000 0.424900 0.905200
vn 0.047000 0.978700 -0.200000
vn 0.000000 -0.452100 -0.892000
vn 0.000000 0.417400 0.908700
vn 0.000000 -0.417400 -0.908700
vn -0.000000 -0.908700 0.417400
vn 0.169300 -0.085000 -0.981900
vn -0.045600 0.097400 0.994200
vn -0.162200 0.290200 0.943100
vn -0.011600 -0.009900 0.999900
vn 0.191800 0.053600 -0.980000
vn 0.004700 0.121300 -0.992600
vn -0.184200 -0.982900 -0.000100
vn 0.002000 0.054600 -0.998500
vn -0.040400 0.997600 0.056400
vn 0.001900 0.000500 -1.000000
vn 0.000000 -1.000000 0.000000
vn -0.000000 0.000000 1.000000
vn 0.048700 0.098000 -0.994000
vn -0.016700 -0.114000 0.993300
vn -1.000000 0.009900 0.000600
vn 1.000000 0.003300 0.000300
vn 0.000000 0.134300 -0.990900
vn -0.062500 -0.138500 0.988400
vn 0.154800 -0.076700 0.985000
vn 0.759400 -0.143500 0.634600
vn -0.000000 0.993300 0.115800
vn -0.000000 -0.092800 0.995700
vn -0.998600 0.051800 0.009000
vn 0.998200 0.057300 0.015600
vn -0.086100 -0.597700 0.797100
vn 0.019000 0.143400 -0.989500
vn 0.648100 0.751600 0.122800
vn 0.178500 -0.974100 -0.139100
vn 0.513100 -0.713000 -0.477900
vn 0.100100 0.601400 -0.792600
vn 0.854100 0.356800 0.378500
vn -0.855400 -0.363000 -0.369400
vn 0.102400 0.602100 0.791800
vn -0.886600 -0.019300 -0.462200
vn -0.666900 0.743700 0.046600
vn -0.649200 -0.759400 -0.042300
vn -0.457800 -0.677500 0.575700
vn -0.116200 -0.597900 -0.793100
vn -0.884300 0.419700 -0.204800
vn 0.885300 -0.419100 0.201800
vn -0.188100 0.473600 0.860400
vn 0.323400 0.942400 0.086000
vn 0.109200 -0.418900 -0.901400
vn -0.105800 -0.277800 -0.954800
vn -0.170400 -0.009800 0.985300
vn 0.049800 0.097400 0.994000
vn -0.002000 -0.000400 1.000000
vn 0.015300 -0.086300 -0.996200
vn 0.020400 0.113800 -0.993300
vn -0.233700 -0.971300 0.044000
vn 0.053000 0.005700 -0.998600
vn 0.011900 0.999900 0.004400
vn 0.000000 0.000000 -1.000000
vn -0.002000 -0.000500 1.000000
vn 0.003700 0.144400 -0.989500
vn -0.059700 -0.134000 0.989200
vn -0.999900 0.004000 0.009900
vn 0.999900 0.006000 0.008000
vn 0.049400 0.083900 -0.995300
vn -0.015800 -0.090400 0.995800
vn 0.465100 0.879700 -0.099100
vn -0.189500 -0.447600 0.873900
vn -0.063100 -0.157400 0.985500
vn -0.998500 0.055000 0.006400
vn 0.998800 0.049500 0.005800
vn -0.101400 -0.599600 0.793900
vn -0.350600 0.927100 -0.132400
vn 0.322800 0.745400 0.583200
vn -0.867500 -0.345500 -0.357800
vn 0.090600 0.600300 -0.794700
vn 0.853400 0.364900 0.372300
vn -0.856300 -0.353700 -0.376400
vn 0.118500 0.599000 0.791900
vn 0.047400 -0.340100 -0.939200
vn -0.348000 0.774700 -0.528000
vn 0.915900 -0.368100 0.160100
vn -0.101500 -0.600800 -0.793000
vn -0.882900 0.424200 -0.201500
vn 0.885700 -0.417500 0.202900
usemtl Material
s off
f 6//1 7//1 8//1
f 4//2 14//2 13//2
f 6//3 12//3 3//3
f 15//4 13//4 14//4
f 12//2 11//2 4//2
f 11//5 5//5 8//5
f 9//2 11//2 12//2
f 6//6 2//6 10//6
f 1//7 5//7 11//7
f 1//8 9//8 10//8
f 4//9 8//9 16//9
f 7//10 15//10 19//10
f 7//11 3//11 13//11
f 17//12 19//12 23//12
f 8//13 18//13 20//13
f 20//14 32//14 30//14
f 7//15 17//15 18//15
f 22//1 21//1 23//1
f 20//16 18//16 22//16
f 19//17 20//17 24//17
f 22//18 18//18 26//18
f 25//19 27//19 28//19
f 21//20 27//20 25//20
f 22//1 28//1 27//1
f 17//2 25//2 26//2
f 32//21 36//21 34//21
f 15//22 29//22 31//22
f 20//23 19//23 31//23
f 15//24 16//24 30//24
f 36//25 40//25 38//25
f 29//26 33//26 35//26
f 31//27 35//27 51//27
f 33//28 29//28 41//28
f 38//29 40//29 39//29
f 33//30 37//30 39//30
f 36//31 35//31 39//31
f 33//32 34//32 38//32
f 43//33 41//33 45//33
f 30//34 34//34 44//34
f 34//35 33//35 43//35
f 29//36 30//36 42//36
f 45//37 46//37 48//37
f 44//38 48//38 46//38
f 43//39 47//39 48//39
f 41//40 42//40 46//40
f 51//41 55//41 53//41
f 36//42 32//42 50//42
f 35//43 36//43 52//43
f 32//44 31//44 49//44
f 54//45 53//45 55//45
f 52//46 50//46 54//46
f 52//47 56//47 55//47
f 50//48 49//48 53//48
f 5//1 6//1 8//1
f 3//2 4//2 13//2
f 7//49 6//49 3//49
f 16//50 15//50 14//50
f 3//2 12//2 4//2
f 4//51 11//51 8//51
f 10//2 9//2 12//2
f 12//6 6//6 10//6
f 9//7 1//7 11//7
f 2//8 1//8 10//8
f 14//52 4//52 16//52
f 17//53 7//53 19//53
f 15//54 7//54 13//54
f 21//55 17//55 23//55
f 16//56 8//56 20//56
f 16//57 20//57 30//57
f 8//58 7//58 18//58
f 24//1 22//1 23//1
f 24//59 20//59 22//59
f 23//60 19//60 24//60
f 28//61 22//61 26//61
f 26//19 25//19 28//19
f 17//62 21//62 25//62
f 21//1 22//1 27//1
f 18//2 17//2 26//2
f 30//63 32//63 34//63
f 19//64 15//64 31//64
f 32//65 20//65 31//65
f 29//66 15//66 30//66
f 34//67 36//67 38//67
f 31//68 29//68 35//68
f 49//69 31//69 51//69
f 43//70 33//70 41//70
f 37//29 38//29 39//29
f 35//71 33//71 39//71
f 40//72 36//72 39//72
f 37//73 33//73 38//73
f 47//74 43//74 45//74
f 42//75 30//75 44//75
f 44//76 34//76 43//76
f 41//77 29//77 42//77
f 47//37 45//37 48//37
f 42//78 44//78 46//78
f 44//79 43//79 48//79
f 45//80 41//80 46//80
f 49//81 51//81 53//81
f 52//82 36//82 50//82
f 51//83 35//83 52//83
f 50//84 32//84 49//84
f 56//45 54//45 55//45
f 56//85 52//85 54//85
f 51//86 52//86 55//86
f 54//87 50//87 53//87
