# Blender v2.72 (sub 0) OBJ File: 'animtst.blend'
# www.blender.org
mtllib cuboid_000022.mtl
o Cube
v 0.179101 0.022247 1.208738
v 0.114325 0.023013 1.704524
v 0.699093 1.999857 1.778186
v 0.764475 1.999077 1.282459
v 0.201315 0.521748 1.210868
v 0.136538 0.522515 1.706654
v 0.211470 2.016105 1.701544
v 0.278166 2.014261 1.210207
v 0.674390 -0.000056 1.273485
v 0.609613 0.000711 1.769270
v 0.696603 0.499446 1.275615
v 0.631826 0.500213 1.771400
v 0.716610 2.512055 1.765396
v 0.777920 2.516279 1.269451
v 0.246391 2.589474 1.625276
v 0.253281 2.631496 1.129825
v -0.250415 2.078781 1.586965
v -0.249537 2.091322 1.088486
v -0.250000 2.585331 1.599357
v -0.250000 2.636515 1.117444
v -0.750000 2.031105 1.537320
v -0.750000 2.144554 1.051182
v -0.750000 2.546117 1.625308
v -0.750000 2.614688 1.134985
v -0.250000 0.090057 1.018731
v -0.250000 0.217822 0.535331
v -0.750000 0.090057 1.018731
v -0.750000 0.217822 0.535331
v 0.242997 3.610172 1.710625
v 0.246519 3.664352 1.215441
v -0.240013 3.623257 1.706877
v -0.244737 3.650133 1.212075
v 0.275384 4.089459 1.765004
v 0.278593 4.148521 1.270579
v -0.275731 4.104086 1.744082
v -0.278654 4.129733 1.250252
v 0.250000 4.590292 1.802676
v 0.250000 4.636464 1.304813
v -0.250000 4.590292 1.802676
v -0.250000 4.636464 1.304813
v 0.405257 3.444360 1.560948
v 0.452135 3.650534 1.108276
v 0.820648 3.669502 1.706251
v 0.870490 3.871006 1.253800
v 1.166291 2.243220 1.084034
v 1.215976 2.453365 0.633069
v 1.592558 2.458955 1.231529
v 1.642243 2.669100 0.780563
v -0.347067 3.601915 1.857548
v -0.396036 3.407439 1.401541
v -0.778874 3.837099 1.809454
v -0.829240 3.643280 1.352767
v -1.024759 2.410062 2.458740
v -1.076223 2.211092 2.002931
v -1.466288 2.639262 2.408541
v -1.517751 2.440291 1.952732
vn -0.989700 0.049200 -0.134500
vn 0.991200 -0.022500 0.130800
vn -0.129600 0.001300 0.991600
vn 0.137000 0.986900 0.085600
vn 0.990400 -0.045400 0.130700
vn 0.146700 -0.008000 -0.989100
vn 0.990600 -0.044600 0.129500
vn -0.129600 0.001500 0.991600
vn 0.129600 -0.001500 -0.991600
vn -0.044400 -0.999000 -0.004300
vn 0.142100 -0.122200 -0.982300
vn -0.052800 0.134800 0.989500
vn -0.280300 0.033500 0.959300
vn 0.064200 -0.168100 0.983700
vn 0.231600 0.051800 -0.971400
vn 0.004100 0.092900 -0.995700
vn -0.128300 -0.991400 -0.025200
vn -1.000000 0.000000 -0.000000
vn 0.091700 0.174700 -0.980300
vn -0.038300 0.989600 0.138400
vn 0.101100 0.281700 -0.954200
vn 0.000000 -0.966800 -0.255500
vn -0.071200 -0.257500 0.963700
vn 1.000000 0.000200 0.000100
vn 0.033600 0.081700 -0.996100
vn -0.010000 -0.083400 0.996500
vn -1.000000 0.009500 0.001000
vn 0.999900 0.005400 0.014400
vn 0.000000 0.107100 -0.994300
vn -0.040600 -0.109900 0.993100
vn 0.162000 -0.064200 0.984700
vn 0.597100 -0.130200 0.791500
vn -0.000000 0.995700 0.092300
vn -0.000000 -0.075000 0.997200
vn -0.998600 0.051800 0.008600
vn 0.998300 0.057600 0.013400
vn -0.090600 -0.416600 0.904600
vn 0.024100 0.111500 -0.993500
vn 0.613900 0.783400 0.097600
vn -0.123000 -0.986400 -0.108800
vn 0.513100 -0.798200 -0.315400
vn 0.099900 0.419400 -0.902300
vn 0.854000 0.429200 0.294100
vn -0.855300 -0.432400 -0.285500
vn 0.102500 0.397300 0.912000
vn -0.778200 -0.005100 -0.627900
vn -0.657000 0.752700 0.043000
vn 0.120200 -0.991200 -0.055000
vn -0.457800 -0.794700 0.398600
vn -0.112200 -0.394700 -0.912000
vn -0.884200 0.456500 -0.099400
vn 0.885600 -0.453900 0.098500
vn -0.990300 0.050900 -0.129500
vn 0.992000 -0.030900 0.122400
vn -0.154900 0.011200 0.987900
vn 0.205800 0.978000 0.033800
vn 0.990600 -0.045000 0.129500
vn 0.129600 -0.001300 -0.991600
vn 0.250700 -0.030900 -0.967600
vn -0.243700 -0.023500 0.969600
vn -0.149200 0.139300 0.978900
vn -0.096600 -0.024300 0.995000
vn 0.023100 -0.128200 -0.991500
vn 0.025300 0.082700 -0.996200
vn -0.141000 -0.989900 -0.015400
vn -0.037300 0.053000 -0.997900
vn -0.072300 0.991800 0.105300
vn 0.000000 0.258600 -0.966000
vn -0.000000 -0.274700 0.961500
vn 1.000000 -0.000800 0.001700
vn 0.003500 0.112900 -0.993600
vn -0.051000 -0.102400 0.993400
vn -0.999900 0.004300 0.009800
vn 1.000000 0.002700 0.007400
vn 0.033900 0.071900 -0.996800
vn -0.009800 -0.077900 0.996900
vn 0.402800 0.822000 0.402600
vn -0.150100 -0.325500 0.933500
vn -0.040800 -0.117400 0.992200
vn -0.998400 0.055900 0.005200
vn 0.998700 0.050300 0.004700
vn -0.100700 -0.418200 0.902700
vn -0.232200 0.802900 -0.549000
vn 0.396800 0.821500 0.409600
vn -0.804500 -0.504600 -0.313200
vn 0.093700 0.418400 -0.903400
vn 0.853400 0.434700 0.287600
vn -0.856000 -0.426100 -0.292900
vn 0.113700 0.395200 0.911600
vn -0.001300 -0.204800 -0.978800
vn -0.477400 0.826600 -0.298200
vn 0.878500 -0.466100 0.104500
vn -0.102100 -0.396500 -0.912300
vn -0.883400 0.458400 -0.097100
vn 0.885500 -0.454100 0.098200
usemtl Material
s off
f 6//1 7//1 8//1
f 3//2 4//2 14//2
f 6//3 12//3 3//3
f 16//4 15//4 13//4
f 11//5 4//5 3//5
f 5//6 8//6 4//6
f 9//7 11//7 12//7
f 6//8 2//8 10//8
f 5//9 11//9 9//9
f 1//10 9//10 10//10
f 4//11 8//11 16//11
f 7//12 15//12 19//12
f 3//13 13//13 15//13
f 19//14 23//14 21//14
f 8//15 18//15 20//15
f 20//16 32//16 30//16
f 7//17 17//17 18//17
f 21//18 23//18 24//18
f 18//19 22//19 24//19
f 20//20 24//20 23//20
f 22//21 18//21 26//21
f 25//22 27//22 28//22
f 17//23 21//23 27//23
f 21//18 22//18 28//18
f 17//24 25//24 26//24
f 32//25 36//25 34//25
f 15//26 29//26 31//26
f 20//27 19//27 31//27
f 15//28 16//28 30//28
f 36//29 40//29 38//29
f 29//30 33//30 35//30
f 31//31 35//31 51//31
f 33//32 29//32 41//32
f 38//33 40//33 39//33
f 33//34 37//34 39//34
f 36//35 35//35 39//35
f 33//36 34//36 38//36
f 43//37 41//37 45//37
f 30//38 34//38 44//38
f 34//39 33//39 43//39
f 29//40 30//40 42//40
f 45//41 46//41 48//41
f 44//42 48//42 46//42
f 43//43 47//43 48//43
f 41//44 42//44 46//44
f 51//45 55//45 53//45
f 36//46 32//46 50//46
f 35//47 36//47 52//47
f 32//48 31//48 49//48
f 53//49 55//49 56//49
f 52//50 50//50 54//50
f 52//51 56//51 55//51
f 50//52 49//52 53//52
f 5//53 6//53 8//53
f 13//54 3//54 14//54
f 7//55 6//55 3//55
f 14//56 16//56 13//56
f 12//57 11//57 3//57
f 11//58 5//58 4//58
f 10//7 9//7 12//7
f 12//8 6//8 10//8
f 1//9 5//9 9//9
f 2//10 1//10 10//10
f 14//59 4//59 16//59
f 17//60 7//60 19//60
f 7//61 3//61 15//61
f 17//62 19//62 21//62
f 16//63 8//63 20//63
f 16//64 20//64 30//64
f 8//65 7//65 18//65
f 22//18 21//18 24//18
f 20//66 18//66 24//66
f 19//67 20//67 23//67
f 28//68 22//68 26//68
f 26//22 25//22 28//22
f 25//69 17//69 27//69
f 27//18 21//18 28//18
f 18//70 17//70 26//70
f 30//71 32//71 34//71
f 19//72 15//72 31//72
f 32//73 20//73 31//73
f 29//74 15//74 30//74
f 34//75 36//75 38//75
f 31//76 29//76 35//76
f 49//77 31//77 51//77
f 43//78 33//78 41//78
f 37//33 38//33 39//33
f 35//79 33//79 39//79
f 40//80 36//80 39//80
f 37//81 33//81 38//81
f 47//82 43//82 45//82
f 42//83 30//83 44//83
f 44//84 34//84 43//84
f 41//85 29//85 42//85
f 47//41 45//41 48//41
f 42//86 44//86 46//86
f 44//87 43//87 48//87
f 45//88 41//88 46//88
f 49//89 51//89 53//89
f 52//90 36//90 50//90
f 51//91 35//91 52//91
f 50//92 32//92 49//92
f 54//49 53//49 56//49
f 56//93 52//93 54//93
f 51//94 52//94 55//94
f 54//95 50//95 53//95
