# Blender v2.72 (sub 0) OBJ File: 'animtst.blend'
# www.blender.org
mtllib cuboid_000001.mtl
o Cube
v 0.250000 0.000000 -0.250000
v 0.250000 0.000000 0.250000
v 0.750000 2.000000 0.250000
v 0.750000 2.000000 -0.250000
v 0.250000 0.500000 -0.250000
v 0.250000 0.500000 0.250000
v 0.250000 2.000000 0.250000
v 0.250000 2.000000 -0.250000
v 0.750000 0.000000 -0.250000
v 0.750000 0.000000 0.250000
v 0.750000 0.500000 -0.250000
v 0.750000 0.500000 0.250000
v 0.750000 2.500000 0.250000
v 0.750000 2.500000 -0.250000
v 0.250000 2.500000 0.250000
v 0.250000 2.500000 -0.250000
v -0.250000 2.000000 0.250000
v -0.250000 2.000000 -0.250000
v -0.250000 2.500000 0.250000
v -0.250000 2.500000 -0.250000
v -0.750000 2.000000 0.250000
v -0.750000 2.000000 -0.250000
v -0.750000 2.500000 0.250000
v -0.750000 2.500000 -0.250000
v -0.250000 0.000000 0.250000
v -0.250000 0.000000 -0.250000
v -0.750000 0.000000 0.250000
v -0.750000 0.000000 -0.250000
v 0.244677 3.521231 0.250000
v 0.245174 3.519249 -0.250000
v -0.241575 3.517742 0.250000
v -0.243005 3.514729 -0.250000
v 0.277954 4.006852 0.250000
v 0.277213 4.006670 -0.250000
v -0.274856 4.003216 0.250000
v -0.273633 4.003057 -0.250000
v 0.250000 4.500000 0.250000
v 0.250000 4.500000 -0.250000
v -0.250000 4.500000 0.250000
v -0.250000 4.500000 -0.250000
v 0.426442 3.403976 0.250000
v 0.424708 3.403461 -0.250000
v 0.847180 3.663940 0.250000
v 0.848536 3.659249 -0.250000
v 1.174009 2.105835 0.250001
v 1.174009 2.105834 -0.249999
v 1.605918 2.357737 0.250001
v 1.605918 2.357737 -0.249999
v -0.425642 3.344568 0.250000
v -0.424388 3.343967 -0.250000
v -0.825884 3.636581 0.250000
v -0.825931 3.636353 -0.250000
v -1.280026 2.113266 0.249999
v -1.280026 2.113266 -0.250001
v -1.689294 2.400492 0.249999
v -1.689294 2.400493 -0.250001
vn -1.000000 0.000000 -0.000000
vn 1.000000 0.000000 0.000000
vn -0.000000 0.000000 1.000000
vn 0.000000 1.000000 -0.000000
vn 0.000000 0.000000 -1.000000
vn 0.000000 -1.000000 0.000000
vn -1.000000 0.008300 -0.000000
vn 1.000000 0.004700 0.001000
vn -0.998700 0.050000 -0.002500
vn 0.998500 0.055100 0.000000
vn 0.516000 0.856600 -0.006600
vn -0.542000 -0.840400 0.002800
vn 0.503800 -0.863800 0.000000
vn 0.864700 0.502300 -0.000000
vn -0.866000 -0.500100 0.000000
vn -0.553100 0.833100 -0.000300
vn 0.685200 -0.728300 0.002600
vn -0.574500 -0.818500 -0.000000
vn -0.819800 0.572700 -0.000200
vn 0.821600 -0.570100 0.002700
vn -1.000000 0.006900 0.002800
vn 1.000000 0.005200 0.000000
vn -0.998900 0.047500 -0.000000
vn 0.998400 0.056600 -0.001500
vn 0.519600 0.854400 -0.001100
vn -0.542100 -0.840300 0.002700
vn 0.864300 0.503000 -0.002400
vn -0.866600 -0.499000 0.003500
vn -0.553900 0.832500 -0.001600
vn 0.685500 -0.728100 0.002400
vn -0.819800 0.572600 -0.000000
vn 0.821100 -0.570800 0.000000
usemtl Material
s off
f 6//1 7//1 8//1
f 4//2 14//2 13//2
f 12//3 3//3 7//3
f 15//4 13//4 14//4
f 11//2 4//2 3//2
f 5//5 8//5 4//5
f 9//2 11//2 12//2
f 6//3 2//3 10//3
f 1//5 5//5 11//5
f 1//6 9//6 10//6
f 8//5 16//5 14//5
f 15//3 19//3 17//3
f 3//3 13//3 15//3
f 19//3 23//3 21//3
f 8//5 18//5 20//5
f 20//5 32//5 30//5
f 7//6 17//6 18//6
f 21//1 23//1 24//1
f 18//5 22//5 24//5
f 20//4 24//4 23//4
f 18//5 26//5 28//5
f 25//6 27//6 28//6
f 21//3 27//3 25//3
f 22//1 28//1 27//1
f 17//2 25//2 26//2
f 32//5 36//5 34//5
f 19//3 15//3 29//3
f 20//7 19//7 31//7
f 16//8 30//8 29//8
f 34//5 36//5 40//5
f 31//3 29//3 33//3
f 35//3 51//3 49//3
f 33//3 29//3 41//3
f 38//4 40//4 39//4
f 33//3 37//3 39//3
f 36//9 35//9 39//9
f 34//10 38//10 37//10
f 43//3 41//3 45//3
f 34//5 44//5 42//5
f 33//11 43//11 44//11
f 29//12 30//12 42//12
f 46//13 48//13 47//13
f 44//5 48//5 46//5
f 43//14 47//14 48//14
f 42//15 46//15 45//15
f 51//3 55//3 53//3
f 36//5 32//5 50//5
f 36//16 52//16 51//16
f 31//17 49//17 50//17
f 54//18 53//18 55//18
f 52//5 50//5 54//5
f 51//19 52//19 56//19
f 50//20 49//20 53//20
f 5//1 6//1 8//1
f 3//2 4//2 13//2
f 6//3 12//3 7//3
f 16//4 15//4 14//4
f 12//2 11//2 3//2
f 11//5 5//5 4//5
f 10//2 9//2 12//2
f 12//3 6//3 10//3
f 9//5 1//5 11//5
f 2//6 1//6 10//6
f 4//5 8//5 14//5
f 7//3 15//3 17//3
f 7//3 3//3 15//3
f 17//3 19//3 21//3
f 16//5 8//5 20//5
f 16//5 20//5 30//5
f 8//6 7//6 18//6
f 22//1 21//1 24//1
f 20//5 18//5 24//5
f 19//4 20//4 23//4
f 22//5 18//5 28//5
f 26//6 25//6 28//6
f 17//3 21//3 25//3
f 21//1 22//1 27//1
f 18//2 17//2 26//2
f 30//5 32//5 34//5
f 31//3 19//3 29//3
f 32//21 20//21 31//21
f 15//22 16//22 29//22
f 38//5 34//5 40//5
f 35//3 31//3 33//3
f 31//3 35//3 49//3
f 43//3 33//3 41//3
f 37//4 38//4 39//4
f 35//3 33//3 39//3
f 40//23 36//23 39//23
f 33//24 34//24 37//24
f 47//3 43//3 45//3
f 30//5 34//5 42//5
f 34//25 33//25 44//25
f 41//26 29//26 42//26
f 45//13 46//13 47//13
f 42//5 44//5 46//5
f 44//27 43//27 48//27
f 41//28 42//28 45//28
f 49//3 51//3 53//3
f 52//5 36//5 50//5
f 35//29 36//29 51//29
f 32//30 31//30 50//30
f 56//18 54//18 55//18
f 56//5 52//5 54//5
f 55//31 51//31 56//31
f 54//32 50//32 53//32
